HIERARCHY
ROOT Hips
{
	OFFSET -14.64140 90.27770 -84.91600
	CHANNELS 6 Xposition Yposition Zposition Zrotation Xrotation Yrotation
	JOINT Spine
	{
		OFFSET 0.00000 13.20850 -1.60440
		CHANNELS 3 Zrotation Xrotation Yrotation
		JOINT Spine1
		{
			OFFSET 0.00000 8.61720 0.00000
			CHANNELS 3 Zrotation Xrotation Yrotation
			JOINT Spine2
			{
				OFFSET 0.00000 8.61720 0.00000
				CHANNELS 3 Zrotation Xrotation Yrotation
				JOINT Spine3
				{
					OFFSET 0.00000 8.61720 0.00000
					CHANNELS 3 Zrotation Xrotation Yrotation
					JOINT Neck
					{
						OFFSET 0.00000 11.07920 1.10790
						CHANNELS 3 Zrotation Xrotation Yrotation
						JOINT Neck1
						{
							OFFSET 0.00000 7.08030 0.00000
							CHANNELS 3 Zrotation Xrotation Yrotation
							JOINT Head
							{
								OFFSET 0.00000 7.08030 0.00000
								CHANNELS 3 Zrotation Xrotation Yrotation
								End site
								{
									OFFSET 0.00000 0.00000 0.00000
								}
							}
						}
					}
					JOINT RightShoulder
					{
						OFFSET -0.01000 7.91370 5.19710
						CHANNELS 3 Zrotation Xrotation Yrotation
						JOINT RightArm
						{
							OFFSET -18.41580 0.00000 0.00000
							CHANNELS 3 Zrotation Xrotation Yrotation
							JOINT RightForeArm
							{
								OFFSET -29.11090 0.00000 0.00000
								CHANNELS 3 Zrotation Xrotation Yrotation
								JOINT RightHand
								{
									OFFSET -24.65040 0.00000 0.00000
									CHANNELS 3 Zrotation Xrotation Yrotation
									JOINT RightHandThumb1
									{
										OFFSET -5.35110 -0.85590 3.97910
										CHANNELS 3 Zrotation Xrotation Yrotation
										JOINT RightHandThumb2
										{
											OFFSET -4.52790 0.00000 0.00000
											CHANNELS 3 Zrotation Xrotation Yrotation
											JOINT RightHandThumb3
											{
												OFFSET -2.46980 0.00000 0.00000
												CHANNELS 3 Zrotation Xrotation Yrotation
												End site
												{
													OFFSET 0.00000 0.00000 0.00000
												}
											}
										}
									}
									JOINT RightHandIndex1
									{
										OFFSET -14.26970 0.00000 2.88140
										CHANNELS 3 Zrotation Xrotation Yrotation
										JOINT RightHandIndex2
										{
											OFFSET -5.48840 0.00000 0.00000
											CHANNELS 3 Zrotation Xrotation Yrotation
											JOINT RightHandIndex3
											{
												OFFSET -3.01860 0.00000 0.00000
												CHANNELS 3 Zrotation Xrotation Yrotation
												End site
												{
													OFFSET 0.00000 0.00000 0.00000
												}
											}
										}
									}
									JOINT RightHandMiddle1
									{
										OFFSET -14.26970 0.00000 -0.09150
										CHANNELS 3 Zrotation Xrotation Yrotation
										JOINT RightHandMiddle2
										{
											OFFSET -6.17440 0.00000 0.00000
											CHANNELS 3 Zrotation Xrotation Yrotation
											JOINT RightHandMiddle3
											{
												OFFSET -3.56740 0.00000 0.00000
												CHANNELS 3 Zrotation Xrotation Yrotation
												End site
												{
													OFFSET 0.00000 0.00000 0.00000
												}
											}
										}
									}
									JOINT RightHandRing1
									{
										OFFSET -12.69180 0.00000 -3.06430
										CHANNELS 3 Zrotation Xrotation Yrotation
										JOINT RightHandRing2
										{
											OFFSET -5.62560 0.00000 0.00000
											CHANNELS 3 Zrotation Xrotation Yrotation
											JOINT RightHandRing3
											{
												OFFSET -3.56740 0.00000 0.00000
												CHANNELS 3 Zrotation Xrotation Yrotation
												End site
												{
													OFFSET 0.00000 0.00000 0.00000
												}
											}
										}
									}
									JOINT RightHandPinky1
									{
										OFFSET -11.11390 0.00000 -6.03720
										CHANNELS 3 Zrotation Xrotation Yrotation
										JOINT RightHandPinky2
										{
											OFFSET -4.52790 0.00000 0.00000
											CHANNELS 3 Zrotation Xrotation Yrotation
											JOINT RightHandPinky3
											{
												OFFSET -2.46980 0.00000 0.00000
												CHANNELS 3 Zrotation Xrotation Yrotation
												End site
												{
													OFFSET 0.00000 0.00000 0.00000
												}
											}
										}
									}
								}
							}
						}
					}
					JOINT LeftShoulder
					{
						OFFSET 0.01000 7.91370 5.19710
						CHANNELS 3 Zrotation Xrotation Yrotation
						JOINT LeftArm
						{
							OFFSET 18.41580 0.00000 0.00000
							CHANNELS 3 Zrotation Xrotation Yrotation
							JOINT LeftForeArm
							{
								OFFSET 29.11090 0.00000 0.00000
								CHANNELS 3 Zrotation Xrotation Yrotation
								JOINT LeftHand
								{
									OFFSET 24.65040 0.00000 0.00000
									CHANNELS 3 Zrotation Xrotation Yrotation
									JOINT LeftHandThumb1
									{
										OFFSET 5.35110 -0.85590 3.97910
										CHANNELS 3 Zrotation Xrotation Yrotation
										JOINT LeftHandThumb2
										{
											OFFSET 4.52790 0.00000 0.00000
											CHANNELS 3 Zrotation Xrotation Yrotation
											JOINT LeftHandThumb3
											{
												OFFSET 2.46980 0.00000 0.00000
												CHANNELS 3 Zrotation Xrotation Yrotation
												End site
												{
													OFFSET 0.00000 0.00000 0.00000
												}
											}
										}
									}
									JOINT LeftHandIndex1
									{
										OFFSET 14.26970 0.00000 2.88140
										CHANNELS 3 Zrotation Xrotation Yrotation
										JOINT LeftHandIndex2
										{
											OFFSET 5.48840 0.00000 0.00000
											CHANNELS 3 Zrotation Xrotation Yrotation
											JOINT LeftHandIndex3
											{
												OFFSET 3.01860 0.00000 0.00000
												CHANNELS 3 Zrotation Xrotation Yrotation
												End site
												{
													OFFSET 0.00000 0.00000 0.00000
												}
											}
										}
									}
									JOINT LeftHandMiddle1
									{
										OFFSET 14.26970 0.00000 -0.09150
										CHANNELS 3 Zrotation Xrotation Yrotation
										JOINT LeftHandMiddle2
										{
											OFFSET 6.17440 0.00000 0.00000
											CHANNELS 3 Zrotation Xrotation Yrotation
											JOINT LeftHandMiddle3
											{
												OFFSET 3.56740 0.00000 0.00000
												CHANNELS 3 Zrotation Xrotation Yrotation
												End site
												{
													OFFSET 0.00000 0.00000 0.00000
												}
											}
										}
									}
									JOINT LeftHandRing1
									{
										OFFSET 12.69180 0.00000 -3.06430
										CHANNELS 3 Zrotation Xrotation Yrotation
										JOINT LeftHandRing2
										{
											OFFSET 5.62560 0.00000 0.00000
											CHANNELS 3 Zrotation Xrotation Yrotation
											JOINT LeftHandRing3
											{
												OFFSET 3.56740 0.00000 0.00000
												CHANNELS 3 Zrotation Xrotation Yrotation
												End site
												{
													OFFSET 0.00000 0.00000 0.00000
												}
											}
										}
									}
									JOINT LeftHandPinky1
									{
										OFFSET 11.11390 0.00000 -6.03720
										CHANNELS 3 Zrotation Xrotation Yrotation
										JOINT LeftHandPinky2
										{
											OFFSET 4.52790 0.00000 0.00000
											CHANNELS 3 Zrotation Xrotation Yrotation
											JOINT LeftHandPinky3
											{
												OFFSET 2.46980 0.00000 0.00000
												CHANNELS 3 Zrotation Xrotation Yrotation
												End site
												{
													OFFSET 0.00000 0.00000 0.00000
												}
											}
										}
									}
								}
							}
						}
					}
					JOINT pCube4
					{
						OFFSET 0.00000 10.91090 1.10790
						CHANNELS 3 Zrotation Xrotation Yrotation
						End site
						{
							OFFSET 0.00000 0.00000 0.00000
						}
					}
				}
			}
		}
	}
	JOINT RightUpLeg
	{
		OFFSET -9.98440 0.00000 0.00000
		CHANNELS 3 Zrotation Xrotation Yrotation
		JOINT RightLeg
		{
			OFFSET 0.00000 -42.11790 0.00000
			CHANNELS 3 Zrotation Xrotation Yrotation
			JOINT RightFoot
			{
				OFFSET 0.00000 -45.00020 -0.00000
				CHANNELS 3 Zrotation Xrotation Yrotation
				JOINT RightForeFoot
				{
					OFFSET 0.00000 -3.74820 0.00000
					CHANNELS 3 Zrotation Xrotation Yrotation
					JOINT RightToeBase
					{
						OFFSET 0.00000 0.06320 14.43120
						CHANNELS 3 Zrotation Xrotation Yrotation
						End site
						{
							OFFSET 0.00000 0.00000 0.00000
						}
					}
				}
			}
		}
	}
	JOINT LeftUpLeg
	{
		OFFSET 9.98440 0.00000 0.00000
		CHANNELS 3 Zrotation Xrotation Yrotation
		JOINT LeftLeg
		{
			OFFSET 0.00000 -42.11800 0.00000
			CHANNELS 3 Zrotation Xrotation Yrotation
			JOINT LeftFoot
			{
				OFFSET 0.00000 -45.00070 0.00000
				CHANNELS 3 Zrotation Xrotation Yrotation
				JOINT LeftForeFoot
				{
					OFFSET 0.00000 -3.74820 0.00000
					CHANNELS 3 Zrotation Xrotation Yrotation
					JOINT LeftToeBase
					{
						OFFSET 0.00000 0.06330 14.43110
						CHANNELS 3 Zrotation Xrotation Yrotation
						End site
						{
							OFFSET 0.00000 0.00000 0.00000
						}
					}
				}
			}
		}
	}
}
MOTION
Frames: 7
Frame Time: 0.050000
0.0 0.0 0.0 -0.0 0.0 -0.0 -0.5588859578683303 3.206478600629102 -1.4285078224716983 -1.0751851737387954 3.8890678754210644 0.3945858078949855 -0.963431023807845 -0.6388194679912124 -0.17488609039640954 0.03589412562369231 0.5418886578018436 -0.5636900890346441 -0.6703399496354806 10.779248391760458 0.856922257935184 -0.08241797283725974 -0.9523417206843989 0.30790480755271277 -0.03791096519650185 -16.22148840686229 0.01450527956164152 -2.8880920393385536 1.078216013883201 -15.300309856139412 77.63945866202481 26.21005630369478 -1.7400793889157662 -11.60816450912334 4.519075160658335 54.165133730497054 18.21092373090418 0.29822759463041953 -3.732196120565584 0.6662 0.2057 17.0925 -0.0 0.0 -33.8039 0.0 -0.0 -33.8039 -34.8611 0.0 -0.0 -0.0 -0.0 -0.0 -0.0 -0.0 -0.0 -39.5292 -0.0 -0.0 0.0001 -0.0 -0.0 0.0 -0.0 -0.0 -39.836 0.0 -0.0 -0.0 0.0 0.0 -0.0 0.0 0.0 -51.5202 0.0 -0.0 0.0 0.0 -0.0 -0.0 0.0 -0.0 3.57445003321548 0.9277435789159717 13.607745912932291 -71.79218450500399 27.084369795522072 -6.65085598891049 -1.165970012187408 -0.4222573930711265 -40.73196386741413 -14.121883521497226 0.09181542106884612 2.7916340754397693 -11.4004 0.4367 -2.1684 -0.0 0.0 51.662 -0.0 0.0 51.662 51.1458 -0.0 -0.0 0.0 -0.0 0.0 -0.0 -0.0 -0.0 54.7253 -0.0 -0.0 0.0 -0.0 0.0 0.0 -0.0 0.0 52.0182 -0.0 -0.0 -0.0 0.0 0.0 0.0 -0.0 0.0 53.1081 0.0 -0.0 -0.0 0.0 -0.0 -0.0 0.0 -0.0 -0.0 -0.0 0.0 -10.7723 -22.4021 0.7241 0.0 71.1458 0.0011 6.4424 -4.2818 -1.0868 0.0 -0.0 0.0 -0.0 -3.537 0.0 -5.7053 -14.9258 11.3918 0.0001 32.3095 -0.0187 4.7164 -11.0815 7.5774 0.0 -0.0 0.0 -0.0 -7.085 0.0
0.0 0.0 0.0 -0.0 0.0 -0.0 -0.6424161906755788 3.096429943921829 -1.3958728641389415 -1.0905490057589113 3.8904118414792435 0.39846616628386367 -0.9868635738771837 -0.6740361917251932 -0.1568490820553063 0.03807541988563493 0.5692075831066872 -0.5662227709636736 -0.6261075037646189 10.893401740276154 0.8607213190701405 -0.08313793029368365 -0.8942281511475287 0.23958113700075118 -0.030913538574015652 -16.17719098240494 0.011637358399409957 -3.212995064121844 1.1495222960510902 -15.210394713871171 77.01422896542746 27.37777516799517 -0.43017187140934304 -11.440214618715643 3.904536352921696 56.86692989401299 17.945760033234457 0.32744384729669546 -3.778609965436506 0.6662 0.2057 17.0925 -0.0 0.0 -33.8039 0.0 -0.0 -33.8039 -34.8611 0.0 -0.0 -0.0 -0.0 -0.0 -0.0 -0.0 -0.0 -39.5292 -0.0 -0.0 0.0001 -0.0 -0.0 0.0 -0.0 -0.0 -39.836 0.0 -0.0 -0.0 0.0 0.0 -0.0 0.0 0.0 -51.5202 0.0 -0.0 0.0 0.0 -0.0 -0.0 0.0 -0.0 3.732492944197868 0.9581760156846397 13.55127160948686 -71.64850359670746 27.53895634947222 -7.068778066284794 -2.4221469938511584 -1.2037275709928688 -41.374826857557 -13.452183138678258 0.10364527737185612 2.8225294804998127 -11.4004 0.4367 -2.1684 -0.0 0.0 51.662 -0.0 0.0 51.662 51.1458 -0.0 -0.0 0.0 -0.0 0.0 -0.0 -0.0 -0.0 54.7253 -0.0 -0.0 0.0 -0.0 0.0 0.0 -0.0 0.0 52.0182 -0.0 -0.0 -0.0 0.0 0.0 0.0 -0.0 0.0 53.1081 0.0 -0.0 -0.0 0.0 -0.0 -0.0 0.0 -0.0 -0.0 -0.0 0.0 -10.7723 -22.4021 0.7241 0.0 71.1458 0.0011 6.4424 -4.2818 -1.0868 0.0 -0.0 0.0 -0.0 -3.537 0.0 -5.7053 -14.9258 11.3918 0.0001 32.3095 -0.0187 4.7164 -11.0815 7.5774 0.0 -0.0 0.0 -0.0 -7.085 0.0
0.0 0.0 0.0 -0.0 0.0 -0.0 -0.7173691289233205 3.0285065031119696 -1.373210248260673 -1.0973807376189553 3.8893518582886704 0.4006161347741147 -1.0022423059396577 -0.6971585626998004 -0.12215892940871874 0.02979418303925583 0.5789019564015695 -0.5636201143962059 -0.5755968215707427 10.986761516257175 0.8452073129411002 -0.07978102176372767 -0.8579450905582241 0.14383486452081076 -0.01632239564166162 -16.151457396717497 0.0069121514535915776 -3.475979483854996 1.2082791092957619 -15.136966216519362 76.2334936624874 28.061282656997122 1.0355448765070017 -11.727162000384133 3.502368781250354 59.92165595068798 17.87463160140914 0.36022903784210486 -3.8111826308748853 0.6662 0.2057 17.0925 -0.0 0.0 -33.8039 0.0 -0.0 -33.8039 -34.8611 0.0 -0.0 -0.0 -0.0 -0.0 -0.0 -0.0 -0.0 -39.5292 -0.0 -0.0 0.0001 -0.0 -0.0 0.0 -0.0 -0.0 -39.836 0.0 -0.0 -0.0 0.0 0.0 -0.0 0.0 0.0 -51.5202 0.0 -0.0 0.0 0.0 -0.0 -0.0 0.0 -0.0 3.8121555470429764 0.9705525695527634 13.497196845572331 -71.58197564271298 27.784673767162637 -7.40106255158248 -3.2710185504320277 -1.6667152079877177 -41.7647812859628 -13.006457321737818 0.10298589602312914 2.8181884540893325 -11.4004 0.4367 -2.1684 -0.0 0.0 51.662 -0.0 0.0 51.662 51.1458 -0.0 -0.0 0.0 -0.0 0.0 -0.0 -0.0 -0.0 54.7253 -0.0 -0.0 0.0 -0.0 0.0 0.0 -0.0 0.0 52.0182 -0.0 -0.0 -0.0 0.0 0.0 0.0 -0.0 0.0 53.1081 0.0 -0.0 -0.0 0.0 -0.0 -0.0 0.0 -0.0 -0.0 -0.0 0.0 -10.7723 -22.4021 0.7241 0.0 71.1458 0.0011 6.4424 -4.2818 -1.0868 0.0 -0.0 0.0 -0.0 -3.537 0.0 -5.7053 -14.9258 11.3918 0.0001 32.3095 -0.0187 4.7164 -11.0815 7.5774 0.0 -0.0 0.0 -0.0 -7.085 0.0
0.0 0.0 0.0 -0.0 0.0 -0.0 -0.7667730509032574 3.013044628325662 -1.3591632749106133 -1.0991959956913637 3.8832312015016224 0.40240726228952756 -1.0077854710314327 -0.7053837022189228 -0.07038650950269168 0.0036956316772661824 0.574812428740673 -0.5557364716903594 -0.5597929732872844 11.045996741316083 0.8898286968258353 -0.08212995843073126 -0.8345218097907886 0.182264661690535 -0.02192762986913296 -16.129674696216927 0.012252353741833122 -3.6586735026716735 1.2508024703882754 -15.075682090527467 75.46861955171953 28.3172813519369 2.37864271159515 -12.473643435706181 3.3340018699676186 62.545536790635246 17.762909874257222 0.3888348444992563 -3.771182372703808 0.6662 0.2057 17.0925 -0.0 0.0 -33.8039 0.0 -0.0 -33.8039 -34.8611 0.0 -0.0 -0.0 -0.0 -0.0 -0.0 -0.0 -0.0 -39.5292 -0.0 -0.0 0.0001 -0.0 -0.0 0.0 -0.0 -0.0 -39.836 0.0 -0.0 -0.0 0.0 0.0 -0.0 0.0 0.0 -51.5202 0.0 -0.0 0.0 0.0 -0.0 -0.0 0.0 -0.0 3.868662330493149 0.9802897148630749 13.473385154806675 -71.46629931571232 27.609631479242832 -7.7828105147066475 -3.8709706979302285 -1.8595856058078313 -42.14322640609434 -12.824735576136112 0.09768983206481849 2.828101847567798 -11.4004 0.4367 -2.1684 -0.0 0.0 51.662 -0.0 0.0 51.662 51.1458 -0.0 -0.0 0.0 -0.0 0.0 -0.0 -0.0 -0.0 54.7253 -0.0 -0.0 0.0 -0.0 0.0 0.0 -0.0 0.0 52.0182 -0.0 -0.0 -0.0 0.0 0.0 0.0 -0.0 0.0 53.1081 0.0 -0.0 -0.0 0.0 -0.0 -0.0 0.0 -0.0 -0.0 -0.0 0.0 -10.7723 -22.4021 0.7241 0.0 71.1458 0.0011 6.4424 -4.2818 -1.0868 0.0 -0.0 0.0 -0.0 -3.537 0.0 -5.7053 -14.9258 11.3918 0.0001 32.3095 -0.0187 4.7164 -11.0815 7.5774 0.0 -0.0 0.0 -0.0 -7.085 0.0
0.0 0.0 0.0 -0.0 0.0 -0.0 -0.8149335133150036 3.001951641860691 -1.3481221294070334 -1.0980083627872632 3.878095664046605 0.40345511377213417 -1.012419425423688 -0.7121378070803177 -0.01271967249165866 -0.016818983068994105 0.5660284101626367 -0.5465756422523536 -0.520869578118737 11.101231545888838 0.8695919557389816 -0.07850674837828717 -0.8231619355909902 0.07695127820878692 -0.008003865009201206 -16.12238746808497 0.006666462423705184 -3.8136837222388444 1.2882899156900374 -15.034053656996827 74.7450121337147 28.255406480319888 3.663494407821416 -13.436364919228119 3.2471190812410713 65.15288098989528 17.65089832968258 0.415208740354781 -3.6733917015735997 0.6662 0.2057 17.0925 -0.0 0.0 -33.8039 0.0 -0.0 -33.8039 -34.8611 0.0 -0.0 -0.0 -0.0 -0.0 -0.0 -0.0 -0.0 -39.5292 -0.0 -0.0 0.0001 -0.0 -0.0 0.0 -0.0 -0.0 -39.836 0.0 -0.0 -0.0 0.0 0.0 -0.0 0.0 0.0 -51.5202 0.0 -0.0 0.0 0.0 -0.0 -0.0 0.0 -0.0 3.8659653832062 0.9774676682481293 13.458025778876724 -71.45794943520595 27.303530638379893 -7.975081388642861 -4.257081640909886 -1.9285085983717376 -42.38436855237925 -12.524504173203137 0.09170132289987436 2.7475165087004134 -11.4004 0.4367 -2.1684 -0.0 0.0 51.662 -0.0 0.0 51.662 51.1458 -0.0 -0.0 0.0 -0.0 0.0 -0.0 -0.0 -0.0 54.7253 -0.0 -0.0 0.0 -0.0 0.0 0.0 -0.0 0.0 52.0182 -0.0 -0.0 -0.0 0.0 0.0 0.0 -0.0 0.0 53.1081 0.0 -0.0 -0.0 0.0 -0.0 -0.0 0.0 -0.0 -0.0 -0.0 0.0 -10.7723 -22.4021 0.7241 0.0 71.1458 0.0011 6.4424 -4.2818 -1.0868 0.0 -0.0 0.0 -0.0 -3.537 0.0 -5.7053 -14.9258 11.3918 0.0001 32.3095 -0.0187 4.7164 -11.0815 7.5774 0.0 -0.0 0.0 -0.0 -7.085 0.0
0.0 0.0 0.0 -0.0 0.0 -0.0 -0.8992118228089352 3.0135198366762923 -1.3317308632369982 -1.0919367928466714 3.8761623006608223 0.4025716904560351 -1.015525172688979 -0.7185885061049161 0.022807023480793005 -0.03894745213040085 0.5457097719119102 -0.5444980859919928 -0.4964529936399412 11.138194273621105 0.8599941056436603 -0.07638833233499402 -0.817134272635731 0.007148336705609234 -0.0025290853385116436 -16.104846732129747 0.0027867889483814954 -3.8845534118402663 1.3036040510781701 -14.995175649925594 73.74608479720563 27.911951424182092 4.822654261676525 -14.49778965681225 3.1208612338798263 67.40196480118695 17.64824977639867 0.4385150115286073 -3.5379096402820442 0.6662 0.2057 17.0925 -0.0 0.0 -33.8039 0.0 -0.0 -33.8039 -34.8611 0.0 -0.0 -0.0 -0.0 -0.0 -0.0 -0.0 -0.0 -39.5292 -0.0 -0.0 0.0001 -0.0 -0.0 0.0 -0.0 -0.0 -39.836 0.0 -0.0 -0.0 0.0 0.0 -0.0 0.0 0.0 -51.5202 0.0 -0.0 0.0 0.0 -0.0 -0.0 0.0 -0.0 3.8440722886932073 0.9702986651661708 13.448790034476666 -71.12957975024567 26.810003475156446 -8.290257375538266 -4.338807543561447 -1.9127088697661903 -42.61302747059237 -12.388738211289674 0.08073624709790261 2.618487844513776 -11.4004 0.4367 -2.1684 -0.0 0.0 51.662 -0.0 0.0 51.662 51.1458 -0.0 -0.0 0.0 -0.0 0.0 -0.0 -0.0 -0.0 54.7253 -0.0 -0.0 0.0 -0.0 0.0 0.0 -0.0 0.0 52.0182 -0.0 -0.0 -0.0 0.0 0.0 0.0 -0.0 0.0 53.1081 0.0 -0.0 -0.0 0.0 -0.0 -0.0 0.0 -0.0 -0.0 -0.0 0.0 -10.7723 -22.4021 0.7241 0.0 71.1458 0.0011 6.4424 -4.2818 -1.0868 0.0 -0.0 0.0 -0.0 -3.537 0.0 -5.7053 -14.9258 11.3918 0.0001 32.3095 -0.0187 4.7164 -11.0815 7.5774 0.0 -0.0 0.0 -0.0 -7.085 0.0
0.0 0.0 0.0 -0.0 0.0 -0.0 -0.986832247197671 3.0236299773334014 -1.3148908860255475 -1.0851563845792134 3.8734573468058904 0.40124901607057095 -1.0179668813835767 -0.7255738610592799 0.053190265261783616 -0.060733170326605364 0.5231552128698778 -0.5439515034361754 -0.4736737675477187 11.188204007017616 0.8515547373535953 -0.07403643768730538 -0.8050952049124609 -0.05638563726621978 0.0028630203885832927 -16.076299908452306 4.154644501229903e-05 -3.9445074972237704 1.3160512749527975 -14.956918437713613 72.67901570052958 27.480229264603174 6.06498995795299 -15.466080326924697 3.032916343907545 69.74166563174599 17.778971669017526 0.4650427600769972 -3.4477808436431583 0.6662 0.2057 17.0925 -0.0 0.0 -33.8039 0.0 -0.0 -33.8039 -34.8611 0.0 -0.0 -0.0 -0.0 -0.0 -0.0 -0.0 -0.0 -39.5292 -0.0 -0.0 0.0001 -0.0 -0.0 0.0 -0.0 -0.0 -39.836 0.0 -0.0 -0.0 0.0 0.0 -0.0 0.0 0.0 -51.5202 0.0 -0.0 0.0 0.0 -0.0 -0.0 0.0 -0.0 3.8230048176085187 0.9633510833665739 13.440549133243847 -70.71907214679932 26.28047565899133 -8.726920254194843 -3.8655896605425784 -1.5821461188998367 -42.92865311062045 -12.292813381690802 0.07072411168185794 2.457308629966295 -11.4004 0.4367 -2.1684 -0.0 0.0 51.662 -0.0 0.0 51.662 51.1458 -0.0 -0.0 0.0 -0.0 0.0 -0.0 -0.0 -0.0 54.7253 -0.0 -0.0 0.0 -0.0 0.0 0.0 -0.0 0.0 52.0182 -0.0 -0.0 -0.0 0.0 0.0 0.0 -0.0 0.0 53.1081 0.0 -0.0 -0.0 0.0 -0.0 -0.0 0.0 -0.0 -0.0 -0.0 0.0 -10.7723 -22.4021 0.7241 0.0 71.1458 0.0011 6.4424 -4.2818 -1.0868 0.0 -0.0 0.0 -0.0 -3.537 0.0 -5.7053 -14.9258 11.3918 0.0001 32.3095 -0.0187 4.7164 -11.0815 7.5774 0.0 -0.0 0.0 -0.0 -7.085 0.0
